<?xml version="1.0" encoding="UTF-8"?>
<svg width="800" height="600" viewBox="0 0 800 600" fill="none" xmlns="http://www.w3.org/2000/svg">
  <!-- Brand Kit Header -->
  <text x="400" y="40" font-family="Rajdhani, sans-serif" font-size="24" font-weight="700" fill="#00FF41" text-anchor="middle">
    SentraTech Logo Variants
  </text>
  
  <!-- Primary Logo - Full Version -->
  <g transform="translate(50, 80)">
    <text x="0" y="-10" font-family="Rajdhani, sans-serif" font-size="14" fill="#F8F9FA">Primary Logo</text>
    <rect x="0" y="0" width="200" height="80" fill="#0A0A0A" stroke="#2a2a2a" rx="8"/>
    
    <!-- Logo -->
    <g transform="translate(20, 16)">
      <rect width="48" height="48" rx="8" fill="#F8F9FA" />
      <g transform="translate(6, 6)">
        <!-- Geometric pattern -->
        <polygon points="18,2 22,2 26,6 26,10 22,14 18,14 14,10 14,6" fill="none" stroke="#2a2a2a" stroke-width="0.8"/>
        <polygon points="28,8 32,8 36,12 36,16 32,20 28,20 24,16 24,12" fill="none" stroke="#2a2a2a" stroke-width="0.8"/>
        <polygon points="28,22 32,22 36,26 36,30 32,34 28,34 24,30 24,26" fill="none" stroke="#2a2a2a" stroke-width="0.8"/>
        <polygon points="18,28 22,28 26,32 26,36 22,40 18,40 14,36 14,32" fill="none" stroke="#2a2a2a" stroke-width="0.8"/>
        <polygon points="8,22 12,22 16,26 16,30 12,34 8,34 4,30 4,26" fill="none" stroke="#2a2a2a" stroke-width="0.8"/>
        <polygon points="8,8 12,8 16,12 16,16 12,20 8,20 4,16 4,12" fill="none" stroke="#2a2a2a" stroke-width="0.8"/>
        <polygon points="18,8 22,12 18,16 14,12" fill="none" stroke="#2a2a2a" stroke-width="0.8"/>
        <polygon points="24,18 28,22 24,26 20,22" fill="none" stroke="#2a2a2a" stroke-width="0.8"/>
        <polygon points="18,24 22,28 18,32 14,28" fill="none" stroke="#2a2a2a" stroke-width="0.8"/>
        <polygon points="12,18 16,22 12,26 8,22" fill="none" stroke="#2a2a2a" stroke-width="0.8"/>
        <line x1="18" y1="12" x2="18" y2="28" stroke="#2a2a2a" stroke-width="0.8"/>
        <line x1="12" y1="18" x2="28" y2="18" stroke="#2a2a2a" stroke-width="0.8"/>
        <line x1="14" y1="14" x2="22" y2="22" stroke="#2a2a2a" stroke-width="0.8"/>
        <line x1="22" y1="14" x2="14" y2="22" stroke="#2a2a2a" stroke-width="0.8"/>
        <circle cx="18" cy="18" r="2" fill="#00FF41"/>
      </g>
    </g>
    
    <!-- Text -->
    <g transform="translate(80, 24)">
      <text x="0" y="20" font-family="Rajdhani, sans-serif" font-size="20" font-weight="700" fill="#00FF41">SENTRA</text>
      <text x="0" y="38" font-family="Rajdhani, sans-serif" font-size="16" font-weight="600" fill="#F8F9FA">TECH</text>
    </g>
  </g>
  
  <!-- Icon Only Version -->
  <g transform="translate(300, 80)">
    <text x="0" y="-10" font-family="Rajdhani, sans-serif" font-size="14" fill="#F8F9FA">Icon Only</text>
    <rect x="0" y="0" width="80" height="80" fill="#0A0A0A" stroke="#2a2a2a" rx="8"/>
    
    <g transform="translate(16, 16)">
      <rect width="48" height="48" rx="8" fill="#F8F9FA" />
      <g transform="translate(6, 6)">
        <polygon points="18,2 22,2 26,6 26,10 22,14 18,14 14,10 14,6" fill="none" stroke="#2a2a2a" stroke-width="0.8"/>
        <polygon points="28,8 32,8 36,12 36,16 32,20 28,20 24,16 24,12" fill="none" stroke="#2a2a2a" stroke-width="0.8"/>
        <polygon points="28,22 32,22 36,26 36,30 32,34 28,34 24,30 24,26" fill="none" stroke="#2a2a2a" stroke-width="0.8"/>
        <polygon points="18,28 22,28 26,32 26,36 22,40 18,40 14,36 14,32" fill="none" stroke="#2a2a2a" stroke-width="0.8"/>
        <polygon points="8,22 12,22 16,26 16,30 12,34 8,34 4,30 4,26" fill="none" stroke="#2a2a2a" stroke-width="0.8"/>
        <polygon points="8,8 12,8 16,12 16,16 12,20 8,20 4,16 4,12" fill="none" stroke="#2a2a2a" stroke-width="0.8"/>
        <polygon points="18,8 22,12 18,16 14,12" fill="none" stroke="#2a2a2a" stroke-width="0.8"/>
        <polygon points="24,18 28,22 24,26 20,22" fill="none" stroke="#2a2a2a" stroke-width="0.8"/>
        <polygon points="18,24 22,28 18,32 14,28" fill="none" stroke="#2a2a2a" stroke-width="0.8"/>
        <polygon points="12,18 16,22 12,26 8,22" fill="none" stroke="#2a2a2a" stroke-width="0.8"/>
        <line x1="18" y1="12" x2="18" y2="28" stroke="#2a2a2a" stroke-width="0.8"/>
        <line x1="12" y1="18" x2="28" y2="18" stroke="#2a2a2a" stroke-width="0.8"/>
        <line x1="14" y1="14" x2="22" y2="22" stroke="#2a2a2a" stroke-width="0.8"/>
        <line x1="22" y1="14" x2="14" y2="22" stroke="#2a2a2a" stroke-width="0.8"/>
        <circle cx="18" cy="18" r="2" fill="#00FF41"/>
      </g>
    </g>
  </g>
  
  <!-- Stacked Version -->
  <g transform="translate(430, 80)">
    <text x="0" y="-10" font-family="Rajdhani, sans-serif" font-size="14" fill="#F8F9FA">Stacked Version</text>
    <rect x="0" y="0" width="120" height="100" fill="#0A0A0A" stroke="#2a2a2a" rx="8"/>
    
    <g transform="translate(36, 16)">
      <rect width="48" height="48" rx="8" fill="#F8F9FA" />
      <g transform="translate(6, 6)">
        <polygon points="18,2 22,2 26,6 26,10 22,14 18,14 14,10 14,6" fill="none" stroke="#2a2a2a" stroke-width="0.8"/>
        <polygon points="28,8 32,8 36,12 36,16 32,20 28,20 24,16 24,12" fill="none" stroke="#2a2a2a" stroke-width="0.8"/>
        <polygon points="28,22 32,22 36,26 36,30 32,34 28,34 24,30 24,26" fill="none" stroke="#2a2a2a" stroke-width="0.8"/>
        <polygon points="18,28 22,28 26,32 26,36 22,40 18,40 14,36 14,32" fill="none" stroke="#2a2a2a" stroke-width="0.8"/>
        <polygon points="8,22 12,22 16,26 16,30 12,34 8,34 4,30 4,26" fill="none" stroke="#2a2a2a" stroke-width="0.8"/>
        <polygon points="8,8 12,8 16,12 16,16 12,20 8,20 4,16 4,12" fill="none" stroke="#2a2a2a" stroke-width="0.8"/>
        <polygon points="18,8 22,12 18,16 14,12" fill="none" stroke="#2a2a2a" stroke-width="0.8"/>
        <polygon points="24,18 28,22 24,26 20,22" fill="none" stroke="#2a2a2a" stroke-width="0.8"/>
        <polygon points="18,24 22,28 18,32 14,28" fill="none" stroke="#2a2a2a" stroke-width="0.8"/>
        <polygon points="12,18 16,22 12,26 8,22" fill="none" stroke="#2a2a2a" stroke-width="0.8"/>
        <line x1="18" y1="12" x2="18" y2="28" stroke="#2a2a2a" stroke-width="0.8"/>
        <line x1="12" y1="18" x2="28" y2="18" stroke="#2a2a2a" stroke-width="0.8"/>
        <line x1="14" y1="14" x2="22" y2="22" stroke="#2a2a2a" stroke-width="0.8"/>
        <line x1="22" y1="14" x2="14" y2="22" stroke="#2a2a2a" stroke-width="0.8"/>
        <circle cx="18" cy="18" r="2" fill="#00FF41"/>
      </g>
    </g>
    
    <text x="60" y="80" font-family="Rajdhani, sans-serif" font-size="16" font-weight="700" fill="#00FF41" text-anchor="middle">SENTRA</text>
    <text x="60" y="95" font-family="Rajdhani, sans-serif" font-size="14" font-weight="600" fill="#F8F9FA" text-anchor="middle">TECH</text>
  </g>
  
  <!-- Color Palette -->
  <g transform="translate(50, 220)">
    <text x="0" y="-10" font-family="Rajdhani, sans-serif" font-size="16" font-weight="600" fill="#F8F9FA">Color Palette</text>
    
    <!-- Matrix Green -->
    <rect x="0" y="10" width="60" height="60" fill="#00FF41" rx="8"/>
    <text x="30" y="85" font-family="Rajdhani, sans-serif" font-size="12" fill="#F8F9FA" text-anchor="middle">Matrix Green</text>
    <text x="30" y="100" font-family="Rajdhani, sans-serif" font-size="10" fill="#a1a1aa" text-anchor="middle">#00FF41</text>
    
    <!-- Deep Black -->
    <rect x="80" y="10" width="60" height="60" fill="#0A0A0A" stroke="#2a2a2a" rx="8"/>
    <text x="110" y="85" font-family="Rajdhani, sans-serif" font-size="12" fill="#F8F9FA" text-anchor="middle">Deep Black</text>
    <text x="110" y="100" font-family="Rajdhani, sans-serif" font-size="10" fill="#a1a1aa" text-anchor="middle">#0A0A0A</text>
    
    <!-- Pure White -->
    <rect x="160" y="10" width="60" height="60" fill="#F8F9FA" stroke="#2a2a2a" rx="8"/>
    <text x="190" y="85" font-family="Rajdhani, sans-serif" font-size="12" fill="#F8F9FA" text-anchor="middle">Pure White</text>
    <text x="190" y="100" font-family="Rajdhani, sans-serif" font-size="10" fill="#a1a1aa" text-anchor="middle">#F8F9FA</text>
    
    <!-- Neon Cyan -->
    <rect x="240" y="10" width="60" height="60" fill="#00DDFF" rx="8"/>
    <text x="270" y="85" font-family="Rajdhani, sans-serif" font-size="12" fill="#F8F9FA" text-anchor="middle">Neon Cyan</text>
    <text x="270" y="100" font-family="Rajdhani, sans-serif" font-size="10" fill="#a1a1aa" text-anchor="middle">#00DDFF</text>
  </g>
  
  <!-- Typography Sample -->
  <g transform="translate(50, 380)">
    <text x="0" y="-10" font-family="Rajdhani, sans-serif" font-size="16" font-weight="600" fill="#F8F9FA">Typography - Rajdhani</text>
    
    <text x="0" y="25" font-family="Rajdhani, sans-serif" font-size="32" font-weight="700" fill="#00FF41">Hero Title</text>
    <text x="0" y="50" font-family="Rajdhani, sans-serif" font-size="24" font-weight="600" fill="#F8F9FA">Section Heading</text>
    <text x="0" y="70" font-family="Rajdhani, sans-serif" font-size="18" font-weight="500" fill="#e2e8f0">Body Text Large</text>
    <text x="0" y="90" font-family="Rajdhani, sans-serif" font-size="16" font-weight="400" fill="#e2e8f0">Body Text Regular</text>
    <text x="0" y="110" font-family="Rajdhani, sans-serif" font-size="14" font-weight="500" fill="#a1a1aa">Small Text</text>
  </g>
  
  <!-- Usage Guidelines -->
  <g transform="translate(450, 220)">
    <text x="0" y="-10" font-family="Rajdhani, sans-serif" font-size="16" font-weight="600" fill="#F8F9FA">Usage Guidelines</text>
    
    <text x="0" y="20" font-family="Rajdhani, sans-serif" font-size="14" font-weight="500" fill="#00FF41">✓ Do's</text>
    <text x="0" y="40" font-family="Rajdhani, sans-serif" font-size="12" fill="#e2e8f0">• Use Matrix Green for interactive elements</text>
    <text x="0" y="55" font-family="Rajdhani, sans-serif" font-size="12" fill="#e2e8f0">• Maintain proper contrast ratios</text>
    <text x="0" y="70" font-family="Rajdhani, sans-serif" font-size="12" fill="#e2e8f0">• Keep animations subtle and smooth</text>
    <text x="0" y="85" font-family="Rajdhani, sans-serif" font-size="12" fill="#e2e8f0">• Use Rajdhani font consistently</text>
    
    <text x="0" y="110" font-family="Rajdhani, sans-serif" font-size="14" font-weight="500" fill="#ff4444">✗ Don'ts</text>
    <text x="0" y="130" font-family="Rajdhani, sans-serif" font-size="12" fill="#e2e8f0">• Don't use colors outside brand palette</text>
    <text x="0" y="145" font-family="Rajdhani, sans-serif" font-size="12" fill="#e2e8f0">• Don't stretch or distort logo</text>
    <text x="0" y="160" font-family="Rajdhani, sans-serif" font-size="12" fill="#e2e8f0">• Don't place logo on busy backgrounds</text>
    <text x="0" y="175" font-family="Rajdhani, sans-serif" font-size="12" fill="#e2e8f0">• Don't use system fonts instead of Rajdhani</text>
  </g>
</svg>